<svg width="136" height="35" viewBox="0 0 136 35" fill="none" xmlns="http://www.w3.org/2000/svg">
<path d="M18.1025 23.92L26.2625 0.399998H35.6225L22.9025 34H13.3025L0.5825 0.399998H9.9425L18.1025 23.92ZM45.9275 14.08C44.6475 14.08 44.0075 14.72 44.0075 16V18.64H52.1675V16C52.1675 14.72 51.5275 14.08 50.2475 14.08H45.9275ZM59.6075 33.52C53.4315 34.16 47.8315 34.48 42.8075 34.48C40.6315 34.48 38.8875 33.824 37.5755 32.512C36.2635 31.2 35.6075 29.456 35.6075 27.28V15.76C35.6075 13.36 36.2795 11.488 37.6235 10.144C38.9995 8.768 40.8875 8.08 43.2875 8.08H52.8875C55.2875 8.08 57.1595 8.768 58.5035 10.144C59.8795 11.488 60.5675 13.36 60.5675 15.76V24.64H44.0075V26.56C44.0075 27.04 44.1675 27.44 44.4875 27.76C44.8075 28.08 45.2075 28.24 45.6875 28.24C48.8555 28.24 53.4955 28 59.6075 27.52V33.52ZM77.8288 34C75.6848 34.32 73.6368 34.48 71.6848 34.48C69.7648 34.48 68.1488 33.824 66.8368 32.512C65.5248 31.2 64.8688 29.456 64.8688 27.28V0.399998H73.2688V26.08C73.2688 26.56 73.4288 26.96 73.7488 27.28C74.0688 27.6 74.4688 27.76 74.9488 27.76H77.8288V34ZM107.101 26.8C107.101 29.2 106.413 31.088 105.037 32.464C103.693 33.808 101.821 34.48 99.4213 34.48H88.3813C85.9813 34.48 84.0933 33.808 82.7173 32.464C81.3733 31.088 80.7013 29.2 80.7013 26.8V15.76C80.7013 13.36 81.3733 11.488 82.7173 10.144C84.0933 8.768 85.9813 8.08 88.3813 8.08H99.4213C101.821 8.08 103.693 8.768 105.037 10.144C106.413 11.488 107.101 13.36 107.101 15.76V26.8ZM98.7013 16.48C98.7013 15.2 98.0613 14.56 96.7813 14.56H91.0213C89.7413 14.56 89.1013 15.2 89.1013 16.48V26.08C89.1013 27.36 89.7413 28 91.0213 28H96.7813C98.0613 28 98.7013 27.36 98.7013 26.08V16.48ZM125.827 8.56H135.187L127.507 21.28L135.427 34H126.067L121.747 26.32L117.427 34H108.067L115.987 21.28L108.307 8.56H117.667L121.747 16.24L125.827 8.56Z" fill="white"/>
</svg>
